<svg width="364" height="191" viewBox="0 0 364 191" fill="none" xmlns="http://www.w3.org/2000/svg">
<path d="M317.149 190.198V189.643C343.658 185.981 363.999 164.64 363.999 138.861C363.999 113.069 343.637 91.7199 317.108 88.0741C317.134 87.6135 317.147 87.1497 317.147 86.6831C317.147 72.2745 304.642 60.594 289.217 60.594C287.828 60.594 286.464 60.6886 285.13 60.8713C270.418 25.2616 233.423 0 190.111 0C154.085 0 122.43 17.4778 104.333 43.8509C96.7129 41.6064 88.6019 40.396 80.1882 40.396C35.9015 40.396 0 73.9304 0 115.297C0 156.664 35.9015 190.198 80.1882 190.198C83.5442 190.198 86.8521 190.005 90.0998 189.632V190.198H317.149Z" fill="#D9D9D9" fill-opacity="0.2"/>
</svg>
