<svg width="198" height="110" viewBox="0 0 198 110" fill="none" xmlns="http://www.w3.org/2000/svg">
<mask id="path-1-inside-1_54_19" fill="white">
<path fill-rule="evenodd" clip-rule="evenodd" d="M107.014 109.885H165.46C166.331 109.961 167.213 110 168.104 110C168.995 110 169.877 109.961 170.748 109.885H172.376V109.699C186.864 107.64 198 95.2666 198 80.3097C198 65.3932 186.924 53.0459 172.494 50.9373C172.508 50.6709 172.515 50.4026 172.515 50.1327C172.515 41.7996 165.713 35.0442 157.322 35.0442C156.566 35.0442 155.823 35.0991 155.097 35.2049C147.094 14.6101 126.971 0 103.411 0C83.8145 0 66.5953 10.1081 56.7513 25.3606C52.6068 24.0627 48.1951 23.3628 43.6188 23.3628C19.5288 23.3628 0 42.7572 0 66.6814C0 90.6056 19.5288 110 43.6188 110C44.6938 110 45.7597 109.961 46.8151 109.885H99.808C100.999 109.961 102.2 110 103.411 110C104.621 110 105.823 109.961 107.014 109.885Z"/>
</mask>
<path fill-rule="evenodd" clip-rule="evenodd" d="M107.014 109.885H165.46C166.331 109.961 167.213 110 168.104 110C168.995 110 169.877 109.961 170.748 109.885H172.376V109.699C186.864 107.64 198 95.2666 198 80.3097C198 65.3932 186.924 53.0459 172.494 50.9373C172.508 50.6709 172.515 50.4026 172.515 50.1327C172.515 41.7996 165.713 35.0442 157.322 35.0442C156.566 35.0442 155.823 35.0991 155.097 35.2049C147.094 14.6101 126.971 0 103.411 0C83.8145 0 66.5953 10.1081 56.7513 25.3606C52.6068 24.0627 48.1951 23.3628 43.6188 23.3628C19.5288 23.3628 0 42.7572 0 66.6814C0 90.6056 19.5288 110 43.6188 110C44.6938 110 45.7597 109.961 46.8151 109.885H99.808C100.999 109.961 102.2 110 103.411 110C104.621 110 105.823 109.961 107.014 109.885Z" fill="#EFF7FA"/>
<path d="M165.46 109.885L166.327 99.9231L165.894 99.8855H165.46V109.885ZM107.014 109.885V99.8855H106.695L106.377 99.9057L107.014 109.885ZM170.748 109.885V99.8855H170.314L169.881 99.9231L170.748 109.885ZM172.376 109.885V119.885H182.376V109.885H172.376ZM172.376 109.699L170.969 99.7986L162.376 101.02V109.699H172.376ZM172.494 50.9373L162.508 50.4088L162.026 59.5138L171.048 60.8322L172.494 50.9373ZM155.097 35.2049L145.776 38.8268L148.66 46.2486L156.539 45.1004L155.097 35.2049ZM56.7513 25.3606L53.7628 34.9036L61.0261 37.1782L65.1533 30.7833L56.7513 25.3606ZM46.8151 109.885V99.8855H46.456L46.0977 99.9112L46.8151 109.885ZM99.808 109.885L100.444 99.9057L100.127 99.8855H99.808V109.885ZM165.46 99.8855H107.014V119.885H165.46V99.8855ZM168.104 100C167.503 100 166.91 99.9739 166.327 99.9231L164.593 119.848C165.752 119.949 166.923 120 168.104 120V100ZM169.881 99.9231C169.298 99.9739 168.705 100 168.104 100V120C169.285 120 170.456 119.949 171.615 119.848L169.881 99.9231ZM172.376 99.8855H170.748V119.885H172.376V99.8855ZM162.376 109.699V109.885H182.376V109.699H162.376ZM188 80.3097C188 90.1651 180.649 98.423 170.969 99.7986L173.783 119.6C193.078 116.858 208 100.368 208 80.3097H188ZM171.048 60.8322C180.689 62.241 188 70.4811 188 80.3097H208C208 60.3053 193.159 43.8508 173.94 41.0424L171.048 60.8322ZM162.515 50.1327C162.515 50.2266 162.512 50.3186 162.508 50.4088L182.48 51.4658C182.503 51.0231 182.515 50.5787 182.515 50.1327H162.515ZM157.322 45.0442C160.255 45.0442 162.515 47.3874 162.515 50.1327H182.515C182.515 36.2117 171.17 25.0442 157.322 25.0442V45.0442ZM156.539 45.1004C156.789 45.0639 157.05 45.0442 157.322 45.0442V25.0442C156.082 25.0442 154.857 25.1342 153.655 25.3094L156.539 45.1004ZM103.411 10C122.742 10 139.23 21.9802 145.776 38.8268L164.418 31.583C154.959 7.23995 131.199 -10 103.411 -10V10ZM65.1533 30.7833C73.2223 18.2811 87.3318 10 103.411 10V-10C80.2971 -10 59.9683 1.93507 48.3492 19.9379L65.1533 30.7833ZM43.6188 33.3628C47.1704 33.3628 50.5749 33.9053 53.7628 34.9036L59.7397 15.8176C54.6387 14.2202 49.2198 13.3628 43.6188 13.3628V33.3628ZM10 66.6814C10 48.3451 24.9864 33.3628 43.6188 33.3628V13.3628C14.0712 13.3628 -10 37.1694 -10 66.6814H10ZM43.6188 100C24.9864 100 10 85.0178 10 66.6814H-10C-10 96.1935 14.0712 120 43.6188 120V100ZM46.0977 99.9112C45.2808 99.97 44.4542 100 43.6188 100V120C44.9334 120 46.2385 119.953 47.5325 119.86L46.0977 99.9112ZM99.808 99.8855H46.8151V119.885H99.808V99.8855ZM103.411 100C102.413 100 101.424 99.9682 100.444 99.9057L99.1716 119.865C100.574 119.955 101.988 120 103.411 120V100ZM106.377 99.9057C105.398 99.9682 104.409 100 103.411 100V120C104.834 120 106.247 119.955 107.65 119.865L106.377 99.9057Z" fill="#FAFAFA" mask="url(#path-1-inside-1_54_19)"/>
</svg>
