<svg width="86" height="86" viewBox="0 0 86 86" fill="none" xmlns="http://www.w3.org/2000/svg">
<path d="M72.5354 44.3809C72.5354 44.652 72.5827 44.9118 72.6696 45.1525C72.5959 48.7466 71.8592 52.2973 70.4952 55.6217C69.0557 59.1306 66.9456 62.3187 64.2857 65.0043C61.6257 67.6898 58.4679 69.8201 54.9924 71.2735C52.966 72.1209 50.8546 72.7286 48.7007 73.088L52.6748 66.1385C53.2912 65.0605 52.9254 63.6821 51.8577 63.0597C50.79 62.4374 49.4247 62.8067 48.8083 63.8847L42.4943 74.9258C41.8779 76.0038 42.2437 77.3822 43.3114 78.0046L54.2475 84.3792C55.3152 85.0015 56.6805 84.6322 57.2969 83.5542C57.9134 82.4763 57.5475 81.0979 56.4798 80.4755L50.7581 77.1403C52.7687 76.7172 54.7406 76.1043 56.6473 75.307C60.6473 73.6342 64.2819 71.1823 67.3434 68.0914C70.4049 65.0004 72.8334 61.331 74.4903 57.2925C76.1472 53.254 77 48.9255 77 44.5543L76.9935 44.5543C76.9978 44.4971 77 44.4393 77 44.3809C77 43.1362 76.0006 42.1272 74.7677 42.1272C73.5348 42.1272 72.5354 43.1362 72.5354 44.3809Z" fill="#007AB0"/>
<path d="M12.0909 42.3005C12.0909 42.0295 12.0435 41.7697 11.9567 41.529C12.0303 37.9349 12.7671 34.3842 14.131 31.0597C15.5706 27.5509 17.6806 24.3628 20.3406 21.6772C23.0006 18.9917 26.1584 16.8614 29.6338 15.408C31.6603 14.5606 33.7716 13.9529 35.9256 13.5936L31.9515 20.543C31.3351 21.621 31.7009 22.9994 32.7686 23.6218C33.8363 24.2441 35.2015 23.8748 35.818 22.7968L42.132 11.7557C42.7484 10.6777 42.3826 9.29931 41.3149 8.67694L30.3788 2.30232C29.3111 1.67996 27.9458 2.0493 27.3293 3.12726C26.7129 4.20522 27.0787 5.5836 28.1464 6.20596L33.8682 9.54115C31.8576 9.96429 29.8857 10.5772 27.979 11.3745C23.9789 13.0473 20.3444 15.4992 17.2829 18.5901C14.2213 21.6811 11.7928 25.3505 10.1359 29.389C8.47905 33.4275 7.62626 37.7559 7.62626 42.1272L7.63276 42.1272C7.62845 42.1844 7.62626 42.2422 7.62626 42.3005C7.62626 43.5453 8.6257 44.5543 9.85858 44.5543C11.0915 44.5543 12.0909 43.5453 12.0909 42.3005Z" fill="#007AB0"/>
</svg>
